<svg width="38" height="26" viewBox="0 0 38 26" fill="none" xmlns="http://www.w3.org/2000/svg">
<path d="M36.9051 20.5225H35.3292C35.3108 20.3197 35.2297 20.1277 35.097 19.9733C34.9791 19.8759 34.843 19.8029 34.6966 19.7584C34.5503 19.714 34.3965 19.699 34.2443 19.7144C33.9577 19.6869 33.6701 19.756 33.4273 19.9108C33.3714 19.9616 33.327 20.0237 33.297 20.093C33.267 20.1622 33.252 20.2371 33.2532 20.3126C33.2532 20.5537 33.5881 20.7591 34.2443 20.893C34.7912 21.004 35.3321 21.1426 35.8649 21.3082C35.9542 21.3439 36.0301 21.3707 36.0837 21.3975C36.3784 21.5044 36.6328 21.7001 36.8119 21.9575C36.9909 22.2149 37.0859 22.5214 37.0837 22.835C37.1036 23.1841 37.0224 23.5315 36.8498 23.8356C36.6771 24.1397 36.4204 24.3875 36.1104 24.5493L35.8649 24.6699C35.4029 24.8568 34.9078 24.9479 34.4095 24.9377C33.7185 24.9627 33.0326 24.809 32.4184 24.4913C32.1243 24.3265 31.8781 24.0881 31.7041 23.7993C31.5404 23.4966 31.4574 23.1568 31.463 22.8127H33.1193C33.1129 22.9391 33.1372 23.0652 33.1901 23.1803C33.2429 23.2953 33.3228 23.3959 33.4229 23.4734C33.7323 23.657 34.0912 23.7397 34.4497 23.71C34.7403 23.7324 35.0295 23.6518 35.2667 23.4823C35.3311 23.4369 35.3837 23.3767 35.4202 23.3068C35.4567 23.237 35.476 23.1594 35.4765 23.0805C35.4765 22.8261 35.1506 22.6341 34.4988 22.4823C33.8769 22.3707 33.2659 22.2049 32.6729 21.9868C32.3769 21.8773 32.1224 21.6783 31.9447 21.4175C31.7671 21.1566 31.6752 20.8469 31.6818 20.5314C31.6737 20.0346 31.8595 19.5542 32.1996 19.1921C32.4588 18.9474 32.7662 18.7595 33.1021 18.6403C33.4381 18.5212 33.7951 18.4734 34.1506 18.5001C34.7372 18.4769 35.3219 18.5805 35.8649 18.8037L35.972 18.8617C36.2661 19.0116 36.5098 19.2444 36.673 19.5314C36.8381 19.8365 36.9182 20.1803 36.9051 20.5269V20.5225Z" fill="#7573F6"/>
<path d="M36.1908 16.5045C36.2221 16.5473 36.2393 16.5988 36.2399 16.6518C36.24 16.6887 36.2326 16.7251 36.218 16.7589C36.2034 16.7927 36.182 16.8231 36.1551 16.8483C36.0988 16.904 36.0243 16.9373 35.9453 16.942C35.9771 16.9535 36.0061 16.9718 36.0301 16.9956L36.1819 17.1965L36.3024 17.3974H36.106L36.0122 17.2322C35.9752 17.1521 35.9238 17.0794 35.8604 17.0179H35.8381L35.7086 16.9822H35.6104V17.4286H35.4542V16.3751H35.8649C35.9313 16.3749 35.9974 16.3839 36.0613 16.4018C36.1151 16.4198 36.1619 16.4542 36.1953 16.5001L36.1908 16.5045ZM36.0569 16.6697C36.0608 16.6396 36.0528 16.6091 36.0345 16.5849C36.0279 16.5716 36.0185 16.56 36.0069 16.5508C35.9954 16.5415 35.9819 16.5349 35.9676 16.5313H35.6104V16.8394H35.8604C35.9134 16.8432 35.9659 16.8273 36.0078 16.7947C36.0248 16.7829 36.0383 16.7667 36.0469 16.7478C36.0556 16.729 36.059 16.7082 36.0569 16.6876V16.6697Z" fill="#7573F6"/>
<path d="M36.8158 16.8795C36.8118 17.037 36.7672 17.1908 36.6863 17.326C36.6105 17.4748 36.4904 17.5964 36.3426 17.6742C36.1997 17.7555 36.0382 17.7985 35.8738 17.7992C35.7169 17.7957 35.5633 17.7528 35.4274 17.6742C35.2774 17.5979 35.1554 17.476 35.0792 17.326C34.9978 17.1815 34.9551 17.0185 34.9551 16.8527C34.9551 16.687 34.9978 16.524 35.0792 16.3795C35.1615 16.2325 35.2838 16.1118 35.4319 16.0313C35.5686 15.9548 35.7217 15.9119 35.8783 15.9063C36.0355 15.9079 36.1895 15.951 36.3247 16.0313C36.476 16.1073 36.5995 16.2292 36.6774 16.3795C36.772 16.5288 36.8202 16.7028 36.8158 16.8795ZM36.6372 16.8795C36.6393 16.7391 36.6035 16.6008 36.5336 16.479C36.4637 16.3572 36.3622 16.2565 36.2399 16.1875C36.1213 16.1249 35.99 16.0898 35.856 16.0849C35.714 16.0939 35.5762 16.1368 35.4542 16.2099C35.3332 16.2807 35.2326 16.3817 35.1622 16.503C35.0918 16.6242 35.054 16.7616 35.0524 16.9019C35.0562 17.0395 35.0929 17.1742 35.1595 17.2947C35.2335 17.4041 35.3352 17.492 35.4542 17.5492C35.5716 17.6192 35.7058 17.6563 35.8426 17.6563C35.9795 17.6574 36.114 17.6203 36.231 17.5492C36.3514 17.4818 36.4514 17.3832 36.5206 17.2638C36.5897 17.1444 36.6254 17.0086 36.6238 16.8706L36.6372 16.8795Z" fill="#7573F6"/>
<path d="M32.0255 16.6295H24.8468L17.3512 4.13375L22.6146 0.968506L32.0255 16.6295Z" fill="#7573F6"/>
<path d="M29.3157 21.4644C29.2354 21.0609 29.0184 20.6975 28.7011 20.4356C28.3839 20.1737 27.986 20.0293 27.5746 20.0269C27.101 20.0269 26.6467 20.2151 26.3118 20.5499C25.977 20.8848 25.7888 21.3391 25.7888 21.8127C25.7888 22.2863 25.977 22.7405 26.3118 23.0754C26.6467 23.4103 27.101 23.5984 27.5746 23.5984C27.9866 23.5958 28.385 23.4508 28.7023 23.188C29.0197 22.9252 29.2364 22.5607 29.3157 22.1564V21.4644ZM30.8023 24.8529H29.3157V24.5136C28.7982 24.8524 28.193 25.0324 27.5746 25.0315C26.7173 25.0315 25.8952 24.6909 25.289 24.0848C24.6829 23.4786 24.3423 22.6565 24.3423 21.7993C24.3423 20.942 24.6829 20.1199 25.289 19.5138C25.8952 18.9076 26.7173 18.5671 27.5746 18.5671C28.193 18.5661 28.7982 18.7461 29.3157 19.0849V18.7322H30.8023V24.8529Z" fill="#7573F6"/>
<path d="M22.3512 21.4644C22.271 21.0609 22.0539 20.6975 21.7367 20.4356C21.4195 20.1737 21.0215 20.0293 20.6101 20.0269C20.1365 20.0269 19.6823 20.2151 19.3474 20.5499C19.0125 20.8848 18.8244 21.3391 18.8244 21.8127C18.8244 22.2863 19.0125 22.7405 19.3474 23.0754C19.6823 23.4103 20.1365 23.5984 20.6101 23.5984C21.0222 23.5958 21.4206 23.4508 21.7379 23.188C22.0552 22.9252 22.2719 22.5607 22.3512 22.1564V21.4644ZM23.8245 21.7903V24.844H22.3512V24.5136C21.8338 24.8524 21.2286 25.0324 20.6101 25.0315C19.7529 25.0315 18.9308 24.6909 18.3246 24.0848C17.7185 23.4786 17.3779 22.6565 17.3779 21.7993C17.3779 20.942 17.7185 20.1199 18.3246 19.5138C18.9308 18.9076 19.7529 18.5671 20.6101 18.5671C21.2286 18.5661 21.8338 18.7461 22.3512 19.0849V16.6295H23.8468V21.7903H23.8245Z" fill="#7573F6"/>
<path d="M20.5789 13.7009L22.3334 16.6295H15.1591L11.0028 9.71421L11.1769 9.61153L16.2752 6.54004L20.5789 13.7009Z" fill="#7573F6"/>
<path d="M15.1681 18.5671H16.7842V24.8529H15.1681V18.5671Z" fill="#7573F6"/>
<path d="M12.9403 22.1386V21.4644C12.8598 21.0594 12.6414 20.6949 12.3224 20.4328C12.0033 20.1707 11.6032 20.0272 11.1903 20.0269C10.7167 20.0269 10.2625 20.2151 9.92759 20.5499C9.5927 20.8848 9.40456 21.3391 9.40456 21.8127C9.40456 22.2863 9.5927 22.7405 9.92759 23.0754C10.2625 23.4103 10.7167 23.5984 11.1903 23.5984C11.6031 23.5968 12.0026 23.4523 12.3208 23.1894C12.6391 22.9265 12.8564 22.5615 12.9359 22.1564L12.9403 22.1386ZM14.427 21.7903V24.844H12.9403V24.5136C12.4199 24.8531 11.8117 25.0331 11.1903 25.0315C10.3331 25.0315 9.51095 24.6909 8.9048 24.0848C8.29864 23.4786 7.95811 22.6565 7.95811 21.7993C7.95811 20.942 8.29864 20.1199 8.9048 19.5138C9.51095 18.9076 10.3331 18.5671 11.1903 18.5671C11.8102 18.566 12.4169 18.746 12.9359 19.0849V16.6295H14.4225V21.7903H14.427Z" fill="#7573F6"/>
<path d="M11.1769 14.183L12.6457 16.6295H5.47145L4.6634 15.2857L9.93582 12.1205L11.1769 14.183Z" fill="#7573F6"/>
<path d="M5.89557 21.4644C5.81505 21.0594 5.59666 20.6949 5.27758 20.4328C4.9585 20.1707 4.55846 20.0272 4.14553 20.0269C3.67192 20.0269 3.21771 20.215 2.88281 20.5499C2.54792 20.8848 2.35978 21.3391 2.35978 21.8127C2.35978 22.2863 2.54792 22.7405 2.88281 23.0754C3.21771 23.4103 3.67192 23.5984 4.14553 23.5984C4.55909 23.5979 4.95964 23.4538 5.2788 23.1908C5.59797 22.9278 5.81596 22.5622 5.89557 22.1564V21.4644ZM7.37773 24.844H5.89557V24.5136C5.37495 24.8526 4.76681 25.0326 4.14553 25.0315C3.2883 25.0315 2.46618 24.6909 1.86002 24.0848C1.25386 23.4786 0.91333 22.6565 0.91333 21.7993C0.91333 20.942 1.25386 20.1199 1.86002 19.5138C2.46618 18.9076 3.2883 18.5671 4.14553 18.5671C4.76681 18.5659 5.37495 18.7459 5.89557 19.0849V18.7322H7.37773V24.844Z" fill="#7573F6"/>
</svg>
