<svg width="16" height="17" viewBox="0 0 16 17" fill="none" xmlns="http://www.w3.org/2000/svg">
<path d="M0 2.15638C0 1.22621 0.754047 0.472168 1.68421 0.472168H7.57895V4.26164C7.57895 6.35451 5.88234 8.05112 3.78947 8.05112H0V2.15638Z" fill="#FF3329"/>
<path d="M0 14.7878C0 15.718 0.754047 16.472 1.68421 16.472H7.57895V12.6825C7.57895 10.5897 5.88234 8.89307 3.78947 8.89307H0V14.7878Z" fill="#FF3329"/>
<path d="M16.0001 2.15638C16.0001 1.22621 15.246 0.472168 14.3159 0.472168H8.42114V4.26164C8.42114 6.35451 10.1177 8.05112 12.2106 8.05112H16.0001V2.15638Z" fill="#FF3329"/>
<path d="M16.0001 14.7878C16.0001 15.718 15.246 16.472 14.3159 16.472H8.42114V12.6825C8.42114 10.5897 10.1177 8.89307 12.2106 8.89307H16.0001V14.7878Z" fill="#FF3329"/>
</svg>
