<svg width="17" height="17" viewBox="0 0 17 17" fill="none" xmlns="http://www.w3.org/2000/svg">
<path d="M16.8013 10.1424V15.8566H13.372V10.5251C13.372 9.18579 12.8759 8.27175 11.6346 8.27175C10.6871 8.27175 10.1232 8.88775 9.87508 9.48362C9.78461 9.69664 9.76132 9.99313 9.76132 10.2913V15.8566H6.33085C6.33085 15.8566 6.37705 6.82678 6.33085 5.89122H9.76099V7.30378C9.75403 7.31435 9.74499 7.32574 9.73845 7.33598H9.76099V7.30378C10.2167 6.62573 11.0306 5.65711 12.8523 5.65711C15.1093 5.65707 16.8013 7.08142 16.8013 10.1424ZM2.74243 1.0874C1.56887 1.0874 0.80127 1.831 0.80127 2.80885C0.80127 3.7654 1.54667 4.53156 2.6969 4.53156H2.71982C3.91611 4.53156 4.66009 3.76554 4.66009 2.80885C4.63755 1.831 3.91611 1.0874 2.74243 1.0874ZM1.00501 15.8566H4.43418V5.89122H1.00501V15.8566Z" fill="#1870B1"/>
</svg>
