<svg width="12" height="12" viewBox="0 0 12 12" fill="none" xmlns="http://www.w3.org/2000/svg">
<path d="M0.73569 5.68203C0.73569 5.68203 6.043 3.37706 7.88369 2.56545C8.58928 2.24081 10.9822 1.20195 10.9822 1.20195C10.9822 1.20195 12.0866 0.747449 11.9946 1.85124C11.9639 2.30574 11.7184 3.89649 11.473 5.6171C11.1049 8.05193 10.7061 10.714 10.7061 10.714C10.7061 10.714 10.6447 11.4607 10.1232 11.5906C9.60166 11.7204 8.74267 11.136 8.58928 11.0062C8.46657 10.9088 6.28843 9.4479 5.4908 8.73369C5.27605 8.5389 5.03062 8.14933 5.52147 7.69483C6.62589 6.6235 7.94504 5.29246 8.74267 4.44839C9.11081 4.05882 9.47895 3.14981 7.94504 4.2536C5.7669 5.84436 3.61943 7.33772 3.61943 7.33772C3.61943 7.33772 3.12858 7.66236 2.20824 7.37018C1.2879 7.078 0.214162 6.68843 0.214162 6.68843C0.214162 6.68843 -0.522113 6.20146 0.73569 5.68203Z" fill="#35AEE2"/>
</svg>
