<svg width="12" height="12" viewBox="0 0 12 12" fill="none" xmlns="http://www.w3.org/2000/svg">
<path d="M10.355 1.16961C10.0602 0.895275 8.86887 0.0205075 6.21541 0.00863011C6.21541 0.00863011 3.0866 -0.182409 1.56125 1.23317C0.712261 2.09216 0.413517 3.34867 0.3819 4.90753C0.350645 6.46636 0.309577 9.38659 3.09277 10.1788L3.09532 10.1795L3.09387 11.3879C3.09387 11.3879 3.07642 11.8773 3.39443 11.9768C3.77968 12.0978 4.00573 11.7258 4.37353 11.325C4.57559 11.1052 4.85398 10.782 5.06406 10.535C6.96774 10.6962 8.43166 10.3264 8.59776 10.2718C8.98226 10.1454 11.1571 9.86384 11.5107 6.94361C11.8756 3.93254 11.3337 2.0286 10.355 1.16961ZM10.6839 6.72599C10.3848 9.16467 8.62137 9.31871 8.29648 9.42427C8.15799 9.46915 6.8718 9.79273 5.25522 9.68571L3.50275 11.6048L3.50093 9.39338L3.48712 9.38983C1.13276 8.72836 1.21199 6.24837 1.23852 4.94664C1.26505 3.6449 1.50674 2.57836 2.22526 1.86125C3.51511 0.67908 6.17291 0.855775 6.17291 0.855775C8.41748 0.865826 9.49326 1.54919 9.74258 1.7783C10.5705 2.4958 10.9924 4.21193 10.6839 6.72599Z" fill="#AA5ABE"/>
<path d="M8.6574 7.08976C8.65629 7.08869 8.30052 6.78884 8.12677 6.65956C7.96286 6.53784 7.70155 6.37408 7.55546 6.29076C7.29341 6.14318 7.02557 6.23582 6.91507 6.38091L6.68539 6.67287C6.56765 6.82082 6.38629 6.79603 6.33867 6.78634C5.99923 6.70229 5.63834 6.49258 5.26906 6.13922C4.89547 5.78266 4.66939 5.41027 4.58873 5.02316L4.5829 4.99764C4.56108 4.83855 4.58799 4.76494 4.65376 4.65652L4.66612 4.64644C4.82131 4.50389 5.10881 4.33045 5.14731 4.16524C5.26033 3.87833 4.76971 3.28008 4.69956 3.1745C4.69956 3.1745 4.34267 2.70766 4.21584 2.61859C4.07881 2.50584 3.86657 2.44156 3.65251 2.57157L3.6416 2.57945C3.02667 2.99062 2.80388 3.22691 2.86457 3.57957L2.89618 3.7214C3.20802 4.69277 3.81023 5.72842 4.70828 6.65061C5.59651 7.56128 6.55744 8.10675 7.50457 8.48454C7.75062 8.56533 8.00573 8.49565 8.26741 8.27483L8.27179 8.27157C8.47241 8.08628 8.63123 7.88806 8.74971 7.67582L8.75079 7.67153C8.866 7.44708 8.82714 7.23448 8.6574 7.08976Z" fill="#AA5ABE"/>
<path d="M7.18301 4.96265C7.14556 4.96265 7.1143 4.93287 7.11248 4.8948C7.10012 4.64306 7.03145 4.45023 6.90823 4.32132C6.78577 4.19347 6.60223 4.12202 6.36308 4.10908C6.32419 4.10692 6.29404 4.07317 6.29623 4.03368C6.29839 3.99418 6.33146 3.96403 6.37073 3.96582C6.64692 3.9809 6.86172 4.06708 7.01 4.22185C7.15755 4.37626 7.23969 4.59997 7.25386 4.88761C7.25568 4.92711 7.22551 4.96052 7.18664 4.96265H7.18301Z" fill="#AA5ABE"/>
<path d="M7.88371 5.20029H7.88189C7.84299 5.19919 7.81211 5.16651 7.81285 5.12701C7.82373 4.64367 7.6809 4.23501 7.38797 3.91183C7.24225 3.75057 7.06523 3.62312 6.86135 3.53298C6.65712 3.44283 6.41905 3.38719 6.15448 3.36743C6.11558 3.36453 6.08615 3.33009 6.08904 3.29096C6.09197 3.25146 6.12575 3.22164 6.16465 3.22451C6.72943 3.26653 7.1761 3.46509 7.49264 3.81523C7.81066 4.16609 7.96622 4.60883 7.95457 5.13027C7.95349 5.16938 7.92187 5.20029 7.88371 5.20029Z" fill="#AA5ABE"/>
<path d="M8.60121 5.48412C8.56232 5.48412 8.53072 5.45254 8.53035 5.41301C8.52709 4.98571 8.46202 4.59927 8.33627 4.26391C8.21122 3.93102 8.02262 3.63835 7.7755 3.39417C7.528 3.15032 7.24668 2.96431 6.9392 2.84112C6.63102 2.7176 6.28757 2.6537 5.91832 2.65118C5.87942 2.65081 5.8478 2.6185 5.84817 2.579C5.84854 2.5395 5.88016 2.50789 5.91906 2.50789H5.9194C6.69463 2.51364 7.35206 2.77723 7.87434 3.29181C8.13636 3.55037 8.33627 3.86027 8.46856 4.21327C8.6001 4.5641 8.66847 4.96774 8.67207 5.41195C8.67244 5.45145 8.64082 5.48376 8.60195 5.48412H8.60121Z" fill="#AA5ABE"/>
</svg>
