<svg width="12" height="12" viewBox="0 0 12 12" fill="none" xmlns="http://www.w3.org/2000/svg">
<path fill-rule="evenodd" clip-rule="evenodd" d="M3.2534 4.65756C3.23272 4.38284 3.28664 4.10764 3.40952 3.86085C3.44696 3.76253 3.499 3.67036 3.5639 3.58743C3.67974 3.43131 3.83454 3.30806 4.01292 3.2299C4.01292 3.2299 4.5431 3.17805 4.58897 3.24906C4.83467 3.67399 5.04021 4.12074 5.20295 4.58355C5.28411 4.88624 4.85803 5.23173 4.85803 5.23173C4.85803 5.23173 4.58809 5.36883 4.85803 5.70835C5.05917 5.96173 5.40144 6.40328 5.60698 6.56631C5.8241 6.74333 6.05509 6.90277 6.29772 7.0431C6.79966 7.32039 6.89317 7.29086 6.89317 7.29086C6.89317 7.29086 6.98579 7.32857 7.23809 6.98589C7.37306 6.80396 7.52038 6.59039 7.66064 6.54733C7.82296 6.49785 9.13383 7.24788 9.08178 7.1955C9.17353 7.2877 9.10119 7.58327 9.10119 7.58327C9.10119 7.58327 9.12943 7.9139 8.63013 8.29516C8.30109 8.54661 7.75678 8.60646 7.75678 8.60646C7.41408 8.58204 7.07725 8.50496 6.7582 8.37795C6.22626 8.17818 5.66431 8.01005 4.93477 7.34852C4.42797 6.89003 3.98768 6.36351 3.62655 5.78411C3.24281 5.12486 3.2534 4.65756 3.2534 4.65756ZM6.1151 11.7331C5.09796 11.7345 4.09787 11.4728 3.2128 10.9734L0 12L1.05594 8.87417C0.389568 7.76233 0.111176 6.46207 0.264151 5.1761C0.417126 3.89013 0.992864 2.69073 1.90163 1.76488C2.8104 0.839024 4.00111 0.238758 5.28813 0.0576591C6.57514 -0.12344 7.88615 0.124808 9.01674 0.763699C10.1473 1.40259 11.034 2.39622 11.5384 3.58968C12.0429 4.78314 12.1368 6.10935 11.8056 7.36157C11.4743 8.61378 10.7366 9.72161 9.70724 10.5124C8.67791 11.3031 7.41489 11.7323 6.1151 11.7331ZM6.10539 0.999121C5.20142 0.995772 4.31405 1.24083 3.54081 1.70736C2.76757 2.17388 2.13842 2.8438 1.72255 3.64346C1.30668 4.44311 1.12019 5.34153 1.18359 6.23993C1.24698 7.13834 1.55782 8.00192 2.08189 8.73574L1.61346 10.1507L1.61523 10.1521L1.47849 10.5512L2.27332 10.3161C2.27205 10.3146 2.27056 10.3133 2.2689 10.3122L3.35925 9.97031C3.99765 10.4 4.72832 10.6744 5.49253 10.7715C6.25675 10.8686 7.03317 10.7858 7.75939 10.5296C8.48561 10.2733 9.14135 9.85094 9.6739 9.29631C10.2065 8.74168 10.601 8.07029 10.8257 7.33612C11.0504 6.60196 11.0991 5.8255 10.9679 5.06918C10.8366 4.31285 10.5291 3.59776 10.0699 2.9814C9.61083 2.36504 9.01295 1.8646 8.32439 1.52032C7.63583 1.17604 6.87579 0.99752 6.10539 0.999121Z" fill="#00C232"/>
</svg>
