<svg width="20" height="21" viewBox="0 0 20 21" fill="none" xmlns="http://www.w3.org/2000/svg">
<path d="M18.0821 8.00668C18.4852 7.75152 18.75 7.32077 18.75 6.83238V5.71622C18.75 4.93279 18.0686 4.2977 17.2281 4.2977H15.2059M18.0821 8.00668V18.2558C18.0821 18.7128 17.6846 19.0833 17.1943 19.0833H2.80575C2.31544 19.0833 1.91795 18.7128 1.91795 18.2558V8.00671M18.0821 8.00668L10 8.0067M1.91795 8.00671C1.51486 7.75154 1.25 7.32077 1.25 6.83238V5.71622C1.25 4.93279 1.93139 4.2977 2.77194 4.2977H10M1.91795 8.00671L10 8.0067M10 4.2977V8.0067M10 4.2977L13.7962 1.58325C13.7962 1.58325 14.8377 1.81202 15.2059 2.28072C15.7051 2.91627 15.2059 4.2977 15.2059 4.2977M10 4.2977H15.2059M10 4.2977L6.20377 1.58325C6.20377 1.58325 5.16232 1.81202 4.79413 2.28072C4.29489 2.91627 4.79413 4.2977 4.79413 4.2977M10 8.0067V15.6191" stroke="white" stroke-width="2"/>
</svg>
