<svg width="20" height="21" viewBox="0 0 20 21" fill="none" xmlns="http://www.w3.org/2000/svg">
<path d="M17.0395 11.1883C17.0395 12.7497 16.5765 14.2761 15.709 15.5743C14.8415 16.8726 13.6085 17.8845 12.1659 18.4821C10.7233 19.0796 9.13598 19.2359 7.60455 18.9313C6.07312 18.6267 4.66642 17.8748 3.56232 16.7707C2.45822 15.6666 1.70632 14.2599 1.4017 12.7285C1.09708 11.197 1.25342 9.60966 1.85095 8.16708C2.44849 6.72451 3.46038 5.49152 4.75866 4.62404C6.05694 3.75655 7.58331 3.29353 9.14474 3.29353V11.1883H17.0395Z" stroke="white" stroke-width="2"/>
<path d="M12.3026 1.58301C13.1493 1.58301 13.9877 1.74977 14.7699 2.07378C15.5522 2.39779 16.2629 2.8727 16.8616 3.4714C17.4603 4.07009 17.9352 4.78084 18.2592 5.56307C18.5832 6.34531 18.75 7.18369 18.75 8.03038H12.3026L12.3026 1.58301Z" stroke="white" stroke-width="2"/>
</svg>
