<svg width="44" height="36" viewBox="0 0 44 36" fill="none" xmlns="http://www.w3.org/2000/svg">
<path d="M18.1917 35.0579C12.2499 35.0579 7.43314 30.2032 7.43314 24.2146C7.43314 18.226 12.2499 13.3713 18.1917 13.3713C21.8614 13.3713 25.1019 15.2231 27.0437 18.0501C27.0939 18.1232 27.1433 18.197 27.1918 18.2714C27.2258 18.3237 27.2594 18.3763 27.2926 18.4292L38.2108 35.0579H31.2654L27.6078 29.4639L22.6858 21.744C22.5922 21.6181 22.52 21.5205 22.4631 21.4438C22.3095 21.2363 22.2684 21.1808 22.2228 21.1294C22.2062 21.1107 22.189 21.0926 22.1655 21.0678C22.1312 21.0316 22.0836 20.9814 22.0049 20.8947C21.0809 19.8176 19.7153 19.1361 18.1917 19.1361C15.4088 19.1361 13.1529 21.4098 13.1529 24.2146C13.1529 27.0194 15.4088 29.2931 18.1917 29.2931H22.0049L25.6818 35.0579H18.1917Z" fill="#222222"/>
<path d="M6.34367 17.7635C6.34367 19.4313 5.00229 20.7832 3.34762 20.7832C1.69294 20.7832 0.351562 19.4313 0.351562 17.7635C0.351562 16.0958 1.69294 14.7439 3.34762 14.7439C5.00229 14.7439 6.34367 16.0958 6.34367 17.7635Z" fill="#222222"/>
<path d="M27.317 0.194702H20.5078L37.1223 24.3519H43.9315L27.317 0.194702Z" fill="#7573F6"/>
</svg>
