<svg width="16" height="16" viewBox="0 0 16 16" fill="none" xmlns="http://www.w3.org/2000/svg">
<path d="M13.8504 11.5642L11.9585 9.66784C11.5817 9.29169 10.9577 9.30312 10.5678 9.69408L9.61466 10.6491C9.55445 10.6159 9.49212 10.5811 9.42659 10.5443C8.82471 10.21 8.00094 9.7519 7.13409 8.88245C6.26468 8.01117 5.80716 7.18426 5.47265 6.58063C5.43735 6.51668 5.40353 6.45502 5.37013 6.39647L6.00981 5.7563L6.3243 5.44071C6.71484 5.04917 6.72561 4.42392 6.34967 4.04668L4.45785 2.15015C4.08192 1.77343 3.45762 1.78486 3.06708 2.17639L2.5339 2.71385L2.54847 2.72834C2.36969 2.95698 2.22029 3.22069 2.10912 3.50506C2.00664 3.77574 1.94283 4.03405 1.91365 4.29288C1.66385 6.3685 2.6102 8.26545 5.17847 10.8396C8.7286 14.3975 11.5895 14.1287 11.713 14.1156C11.9818 14.0834 12.2394 14.019 12.5012 13.9171C12.7824 13.807 13.0454 13.6575 13.2734 13.4787L13.285 13.4891L13.8252 12.9589C14.2149 12.5675 14.2261 11.942 13.8504 11.5642Z" stroke="white" stroke-width="2"/>
</svg>
