<svg width="18" height="18" viewBox="0 0 18 18" fill="none" xmlns="http://www.w3.org/2000/svg">
<rect x="0.111084" width="17.8889" height="17.8889" rx="8.94444" fill="#7573F6"/>
<path d="M6.85136 12.1203L11.1395 5.88957M8.16915 7.26864C8.16915 8.09601 7.49843 8.76673 6.67106 8.76673C5.84369 8.76673 5.17297 8.09601 5.17297 7.26864C5.17297 6.44127 5.84369 5.77055 6.67106 5.77055C7.49843 5.77055 8.16915 6.44127 8.16915 7.26864ZM12.9818 10.6222C12.9818 11.4496 12.3111 12.1203 11.4838 12.1203C10.6564 12.1203 9.98567 11.4496 9.98567 10.6222C9.98567 9.79487 10.6564 9.12415 11.4838 9.12415C12.3111 9.12415 12.9818 9.79487 12.9818 10.6222Z" stroke="white" stroke-width="0.888889" stroke-linecap="round"/>
</svg>
