<svg width="16" height="17" viewBox="0 0 16 17" fill="none" xmlns="http://www.w3.org/2000/svg">
<path d="M5.66678 1.33301H10.3334M8.00011 10.6663V5.99967M11.8501 6.03856C12.9131 7.10153 13.4446 8.38486 13.4446 9.88856C13.4446 11.3923 12.9131 12.6756 11.8501 13.7386C10.7871 14.8015 9.50381 15.333 8.00011 15.333C6.4964 15.333 5.21307 14.8015 4.15011 13.7386C3.08715 12.6756 2.55566 11.3923 2.55566 9.88856C2.55566 8.38486 3.08715 7.10153 4.15011 6.03856C5.21307 4.9756 6.4964 4.44412 8.00011 4.44412C9.50381 4.44412 10.7871 4.9756 11.8501 6.03856ZM11.8501 6.03856L13.4446 4.44412" stroke="#BCBCCC" stroke-width="2"/>
</svg>
