<svg width="16" height="16" viewBox="0 0 16 16" fill="none" xmlns="http://www.w3.org/2000/svg">
<path d="M14.7563 14.9999V14.9806C14.2148 13.6288 13.2794 12.4738 12.0734 11.6676C10.8674 10.8615 9.44733 10.4419 7.99997 10.4642C6.55275 10.4418 5.13266 10.8612 3.92669 11.6672C2.72072 12.4731 1.78537 13.6279 1.24365 14.9795V14.9999M11.1448 4.16827C11.1445 4.79453 10.9599 5.40664 10.6141 5.92721C10.2684 6.44777 9.77711 6.85343 9.20244 7.09287C8.62778 7.33231 7.99556 7.3948 7.38563 7.27243C6.7757 7.15005 6.21546 6.84833 5.77581 6.40538C5.33616 5.96243 5.03685 5.39816 4.91563 4.7839C4.79442 4.16965 4.85678 3.53299 5.09485 2.95442C5.33292 2.37586 5.73594 1.88137 6.25307 1.53347C6.77019 1.18556 7.37813 0.999878 8.00005 0.999878C8.41316 0.999878 8.82214 1.08184 9.20379 1.24108C9.58544 1.40033 9.93224 1.63373 10.2243 1.92797C10.5163 2.2222 10.7481 2.57149 10.906 2.95589C11.064 3.34029 11.145 3.75226 11.1448 4.16827Z" stroke="#222222" stroke-width="2" stroke-linecap="round" stroke-linejoin="round"/>
</svg>
